<svg width="238" height="224" viewBox="0 0 238 224" fill="none" xmlns="http://www.w3.org/2000/svg">
    <path fill-rule="evenodd" clip-rule="evenodd" class="fins"
        d="M128 0C188.751 7.24449e-07 238 49.2487 238 110C238 121.564 229.722 131.539 217.77 136.144C207.522 186.281 163.166 223.999 110 223.999C49.2487 223.999 0 174.751 0 113.999C0 102.436 8.27757 92.4602 20.2299 87.8552C30.4777 37.7181 74.8341 -6.33998e-07 128 0Z"
        fill="white" />
    <g filter="url(#filter0_d_438_150)">
        <path class="circle"
            d="M18 114C18 58.7715 62.7715 14 118 14C173.228 14 218 58.7715 218 114C218 169.228 173.228 214 118 214C62.7715 214 18 169.228 18 114Z"
            fill="rgba(64,255,255,0)" />
    </g>
    <defs>
        <filter id="filter0_d_438_150" x="14" y="14" width="208" height="208" filterUnits="userSpaceOnUse"
            color-interpolation-filters="sRGB">
            <feFlood flood-opacity="0" result="BackgroundImageFix" />
            <feColorMatrix in="SourceAlpha" type="matrix" values="0 0 0 0 0 0 0 0 0 0 0 0 0 0 0 0 0 0 127 0"
                result="hardAlpha" />
            <feOffset dy="4" />
            <feGaussianBlur stdDeviation="2" />
            <feComposite in2="hardAlpha" operator="out" />
            <feColorMatrix type="matrix" values="0 0 0 0 0 0 0 0 0 0 0 0 0 0 0 0 0 0 0.25 0" />
            <feBlend mode="normal" in2="BackgroundImageFix" result="effect1_dropShadow_438_150" />
            <feBlend mode="normal" in="SourceGraphic" in2="effect1_dropShadow_438_150" result="shape" />
        </filter>
    </defs>
</svg>