<svg width="101" height="87" viewBox="0 0 101 87" fill="none" xmlns="http://www.w3.org/2000/svg">
<path fill-rule="evenodd" clip-rule="evenodd" d="M0 86.6667L90.1667 86.6667C96.1498 86.6667 101 81.8166 101 75.8334L101 54.1667C95.0168 54.1667 90.1667 49.3166 90.1667 43.3334C90.1667 37.3503 95.0168 32.5001 101 32.5001L101 10.8334C101 4.85026 96.1498 8.34993e-05 90.1667 8.29763e-05L7.57664e-06 7.50936e-05L6.31387e-06 14.4445L73.9167 14.4445C76.9083 14.4445 79.3333 16.8696 79.3333 19.8612L79.3333 66.8056C79.3333 69.7972 76.9082 72.2223 73.9167 72.2223L1.26277e-06 72.2223L0 86.6667ZM1.89416e-06 65.0001L72.1111 65.0001L72.1111 21.6667L5.68248e-06 21.6667L1.89416e-06 65.0001Z" fill="white"/>
</svg>
